<?xml version="1.0" encoding="UTF-8"?>
<svg id="Layer_1" xmlns="http://www.w3.org/2000/svg" viewBox="0 0 130 130">
  <defs>
    <style>
      .cls-1 {
        fill: #8A8A8A ;
      }
    </style>
  </defs>
  <path class="cls-1" d="M64.73,129.98c-17.09-.11-33.04-4.43-47.94-12.8-1.62-.91-1.89-1.82-1.59-3.56,1.21-6.88,2.15-13.81,3.35-20.7,1.01-5.81,3.73-10.66,8.77-13.96,1.1-.72,1.16-1.66,1.27-2.75,1.23-12.84,2.26-25.7,4.38-38.44.68-4.11,1.54-8.17,2.59-12.2.47-1.81.9-3.5.64-5.54-.27-2.14.92-4.37,2.87-5.79.83-.6,1.47-1.3,1.99-2.18C45.63,4.44,52.61.83,61.27.16c4.08-.31,8.15-.2,12.17.75,4.04.96,7.92,2.44,10.71,5.55,3.44,3.85,8.07,7.24,9.18,12.36.79,3.68,1.29,7.53,2.1,11.27,3.01,13.95,4.15,28.14,5.5,42.3.04.41.07.83.08,1.25.05,2.83.79,5.03,3.42,6.85,3.58,2.49,5.48,6.4,6.51,10.65,1.88,7.78,2.36,15.8,3.93,23.63.24,1.19-.45,1.62-1.28,2.1-12.08,6.93-25.02,11.2-38.88,12.62-3.31.34-6.63.59-9.97.5ZM83.89,33.74c0-6.85,0-6.82-6.25-5.24-8.72,2.2-17.44,2.15-26.14-.2-1.28-.35-2.55-.75-3.9-.75-.95,0-1.56.18-1.61,1.35-.33,8.27.27,16.31,5.2,23.41,1.94,2.79,3.93,3.48,7.04,2.03,4.52-2.12,8.94-2.12,13.46.02,3.08,1.46,5.1.79,7.02-2.07,3.83-5.73,5.4-12.08,5.19-18.52ZM43.5,37.63c0-2.4.05-4.48-.02-6.56-.03-.76.53-1.89-.46-2.2-.77-.24-1.5.63-2.04,1.23-3.49,3.97-5.69,8.59-6.44,13.82-1.46,10.22-2.35,20.49-3.33,30.76-.2,2.12.44,1.99,1.97,1.34,4.98-2.1,9.99-4.15,15.35-5.14.48-.09.97-.16,1.31-.62,1.06-1.47.82-7.34-.42-8.78-2.22-2.57-3.65-5.54-4.48-8.82-1.28-5.04-1.59-10.18-1.43-15.04ZM86.37,37.06s-.07,0-.1,0c0,2.33.14,4.67-.03,6.99-.47,6.64-1.61,13.06-6.43,18.2-.82.88-.49,7,.23,8.02.33.46.83.53,1.31.62,5.27.98,10.22,2.97,15.11,5.06,1.75.75,2.46.89,2.18-1.51-.87-7.52-1.49-15.07-2.27-22.6-.68-6.54-1.35-13.1-5.16-18.8-.93-1.39-1.88-2.74-3.25-3.74-1.06-.77-1.61-.72-1.59.78.04,2.33.01,4.66.01,6.99ZM92.81,30.04c-.12-.56-.21-1.13-.36-1.68-.38-1.45-.84-2.88-1.14-4.34-.29-1.41-1.09-2.07-2.46-2.4-15.99-3.84-31.96-3.84-47.94.05-.98.24-1.86.52-2.15,1.75-.52,2.25-1.19,4.46-1.87,6.97.53-.31.79-.38.93-.56,3.87-4.65,8.64-5.66,14.36-3.95,6.38,1.91,12.95,2.23,19.52,1.22,3.28-.51,6.47-1.6,9.76-1.97,4.57-.52,8.2,1.56,11.35,4.91ZM64.6,80.52c4.62-.02,8.73-1.11,12.5-3.53,1.31-.84,1.73-1.72,1.2-3.28-.59-1.72-.9-3.55-1.2-5.35-.5-3.01-.47-3.04-3.25-1.43-5.18,3.01-10.49,3.57-15.98.95-1.05-.5-2.05-1.11-3.05-1.7-1.07-.62-1.79-.81-1.89.88-.13,2.33-.53,4.65-1.38,6.83-.6,1.54.06,2.3,1.21,3.05,3.66,2.41,7.69,3.5,11.85,3.57ZM86.23,12.69c-5.82-8.61-13.89-10.42-22.84-10.15-7.94.24-14.78,2.66-19.7,10.15,14.29-2.95,28.08-2.94,42.54,0ZM67.37,119.1c-.12-1.4-.86-2.36-2.27-2.46-1.43-.11-2.42.77-2.53,2.16-.12,1.52.79,2.55,2.33,2.61,1.43.05,2.2-.91,2.47-2.3ZM67.41,93.74c-.3-1.23-.93-2.25-2.43-2.27-1.47-.01-2.39.89-2.43,2.28-.04,1.5.86,2.51,2.46,2.47,1.48-.03,2.14-1.03,2.39-2.48ZM67.39,106.36c-.23-1.21-.86-2.25-2.33-2.3-1.58-.05-2.49.92-2.49,2.45,0,1.45.97,2.31,2.38,2.31,1.4,0,2.24-.88,2.45-2.45Z"/>
</svg>
