<?xml version="1.0" encoding="UTF-8"?>
<svg xmlns="http://www.w3.org/2000/svg" version="1.1" viewBox="0 0 526.6 636.4" fill="darkgray">
  <!-- Generator: Adobe Illustrator 28.7.2, SVG Export Plug-In . SVG Version: 1.2.0 Build 154)  -->
  <g>
    <g id="Layer_1">
      <path d="M132.9,210.8c-.5-9.7-2.5-18.7-5.9-27.4-9.8-25.2-11.2-51.1-7.7-77.7,1.8-13.8,9.7-24.2,18.1-34.4,3.7-4.5,7.5-8.8,12-14.1-9.1,1.8-17.4,1.9-25.2,4.5-.8-2.1.3-3.2,1.5-4,7.6-5.5,13.8-12.5,20.9-18.5C171.6,18.1,200.5,5.1,232.7,1.3c31.7-3.7,62.6.5,90.3,18.3,5.3,3.4,10.3,7.4,14.9,11.7,2.2,2,4.9,4.1,5.5,7,1.5,6.9,6.3,7.2,12,7.7,21.1,1.6,37.3,11.9,49.7,28.7,3.9,5.3,5.8,11.5,7.1,18.1-4-4.8-8.3-9.1-13.4-11.8,12.8,36,12.5,72-.3,108-2,5.5-3.1,11.2-3.9,17-.2,1.5-1.8,3.4.3,4.5,1.6.8,2.6-1.1,3.8-1.8.6-.3,1.1-.7,2-1.2,1.1,4.2.6,8.1.7,12,0,10.2.1,20.4-2.6,30.3-2.8,10-6.9,19.4-15.2,26.3-1.8,1.5-2.1,3.8-2.6,5.8-2.3,8.5-3.2,17.4-4.7,26-2.4,13.9-7.1,27-12.6,39.9-2,4.7-3.8,9.6-5.8,14.3-.8,2,0,2.8,1.7,3.3,4,1.3,6.6,4.3,9,7.6,7.6,10.1,15.2,20.3,22.7,30.4,5.3,7.1,12.1,12.3,20.1,16,32,14.5,64,29,95.9,43.6,5.9,2.7,11.5,5.9,16.8,9.8,2.9,2.2,3.1,3.9,1.4,6.9-25.5,46.8-60.7,84.5-106.1,112.5-51.5,31.8-107.8,47.2-168.1,43.6-111.9-6.6-195.1-60.2-250.3-157.7-2-3.5-1.1-5.1,1.8-7.2,9.2-6.5,19.5-10.8,29.7-15.2,26.9-11.7,53.3-24.5,80.7-34.9,12.7-4.8,22.4-13.5,30.1-24.6,6.3-9.2,13.2-18,19.9-26.9.7-.9,1.3-2.3,2.3-2.6,5.9-1.7,3.2-5,1.7-8.2-9.7-20.5-16.3-41.8-19.4-64.3-1.1-8.3-3.5-15.8-9.4-22.5-9.3-10.7-11.9-24.3-12.4-38.2-.2-7-.6-14,.2-21,.2-1.7-.5-3.9,1.6-4.9,3-1.4,2.3,2.7,5.1,3.1Z"/>
    </g>
  </g>
</svg>