<svg width="18" height="14" viewBox="0 0 18 14" fill="none" xmlns="http://www.w3.org/2000/svg">
<path d="M1.17533 1.99911V1.9987C1.17533 1.35491 1.69639 0.832031 2.33366 0.832031H15.667C16.3075 0.832031 16.8337 1.35817 16.8337 1.9987V11.9987C16.8337 12.6392 16.3075 13.1654 15.667 13.1654H2.33366C1.6932 13.1654 1.16709 12.6393 1.16699 11.9989C1.16699 11.9988 1.16699 11.9988 1.16699 11.9987L1.17533 1.99911ZM15.932 4.08936L16.167 3.94249V3.66536V1.9987V1.09657L15.402 1.5747L9.00033 5.57574L2.59866 1.5747L1.83366 1.09657V1.9987V3.66536V3.94249L2.06866 4.08936L8.73533 8.25603L9.00033 8.42165L9.26533 8.25603L15.932 4.08936Z" fill="#ACACAC" stroke="#ACACAC"/>
</svg>
