<svg width="251" height="251" viewBox="0 0 251 251" fill="none" xmlns="http://www.w3.org/2000/svg">
<path d="M0.559937 0V250.04H250.6V0H0.559937ZM11.1999 239.4V10.64H114.94L105.63 23.94C105.63 23.94 92.3299 42.56 106.96 55.86L132.23 78.47C130.9 78.47 129.57 78.47 129.57 78.47C124.25 79.8 117.6 82.46 112.28 85.12L101.64 75.81C101.64 75.81 97.6499 71.82 93.6599 67.83C90.9999 65.17 87.0099 61.18 90.9999 53.2C90.9999 51.87 92.3299 50.54 93.6599 49.21L89.6699 46.55L79.0299 61.18C79.0299 61.18 65.7299 79.8 80.3599 93.1L93.6599 105.07C92.3299 105.07 92.3299 106.4 92.3299 106.4L85.6799 114.38C85.6799 114.38 77.6999 126.35 80.3599 138.32C80.3599 142.31 83.02 151.62 96.3199 162.26L128.24 188.86L134.89 179.55C142.87 167.58 134.89 160.93 134.89 160.93L104.3 136.99C104.3 136.99 87.0099 122.36 96.3199 110.39C96.3199 109.06 97.6499 109.06 98.9799 107.73L106.96 114.38L145.53 147.63C145.53 147.63 165.48 164.92 148.19 188.86L128.24 215.46L79.0299 172.9C79.0299 172.9 64.3999 159.6 71.0499 146.3L67.0599 143.64L60.4099 152.95C60.4099 152.95 52.43 163.59 55.09 175.56C55.09 179.55 57.7499 188.86 71.0499 199.5L117.6 239.4H11.1999ZM239.96 239.4H168.14L182.77 220.78L162.82 204.82L148.19 223.44L166.81 239.4H117.6L154.84 188.86L162.82 176.89C162.82 176.89 166.81 171.57 169.47 164.92C173.46 154.28 173.46 138.32 154.84 122.36L124.25 97.09C148.19 94.43 161.49 105.07 164.15 106.4L170.8 111.72C170.8 111.72 192.08 130.34 177.45 150.29L181.44 152.95L189.42 140.98C189.42 140.98 193.41 135.66 196.07 129.01C200.06 118.37 200.06 102.41 181.44 86.45L128.24 41.23C128.24 41.23 121.59 35.91 120.26 33.25C118.93 30.59 114.94 27.93 114.94 23.94C114.94 19.95 116.27 17.29 118.93 13.3L120.26 11.97H238.63V239.4H239.96Z" fill="black"/>
</svg>
