<svg  viewBox="0 0 167 300" fill="none" xmlns="http://www.w3.org/2000/svg">
<g clip-path="url(#clip0_1710_19890)">
<path d="M104.322 74.9286L130.211 97.1379C130.211 97.1379 133.176 99.7469 134.197 100.951C135.033 101.932 136.488 103.616 136.627 105.779C136.75 107.629 135.841 109.135 134.553 111.097L134.096 111.721H137.084L141.828 105.238C141.828 105.238 148.367 96.2572 140.892 89.8296L128.36 79.0483L128.293 78.9925C128.884 78.8922 129.28 78.8197 129.28 78.8197C132.262 78.2678 135.384 77.0971 137.898 75.3857L143.267 79.9848C143.267 79.9848 145.457 81.869 147.353 84.0097C148.613 85.4312 150.346 87.5106 148.724 91.2288C148.423 91.9201 147.977 92.6002 147.492 93.3583L149.304 94.9806L154.566 87.806C154.566 87.806 161.105 78.8197 153.63 72.3866L147.074 66.7172C147.715 65.9534 148.066 65.4629 148.066 65.4629L151.116 61.2819C151.116 61.2819 154.918 55.579 153.803 49.3466C153.496 47.6129 152.286 42.8856 146.126 37.5897L130.673 24.3109L127.206 29.0995C123.438 34.7801 127.474 38.1137 127.474 38.1137L141.895 50.5005C141.895 50.5005 150.335 57.7587 145.998 63.6901C145.758 64.1027 145.385 64.5263 144.961 64.95L141.087 61.6108L122.139 45.3496C122.139 45.3496 112.26 36.8037 120.611 25.3422L130.25 12.0969L154.605 33.0631C154.605 33.0631 161.825 39.2677 158.708 46.2471L160.548 47.8749L164.01 43.1253C164.01 43.1253 167.633 38.1416 166.518 31.9036C166.212 30.181 165.002 25.4426 158.837 20.1467L135.746 0.284233H135.167L117.216 24.991L113.102 30.6437C113.102 30.6437 111.14 33.3195 109.969 36.5584C108.202 41.4585 108.001 49.7034 117.049 57.4911L131.8 70.14C120.349 71.5894 113.431 66.2154 112.366 65.3179L112.216 65.1841H112.21L109.429 62.7926C109.429 62.7926 99.1266 53.9289 106.368 43.9838L104.501 42.4341L100.386 48.0812C100.386 48.0812 98.4298 50.7681 97.2535 54.0014C95.4864 58.9015 95.2857 67.1464 104.339 74.9342L104.322 74.9286ZM120.282 7.86574L111.324 0.278656H110.716L103.386 9.34859L112.907 17.2757L120.277 7.86574H120.282Z" stroke="white" stroke-width="1.02325" stroke-miterlimit="10"/>
</g>
<path d="M136.958 169.997L128 162.41H128.006L135.375 153L144.897 160.927L137.566 169.997H136.958Z" stroke="white" stroke-width="1.02325" stroke-miterlimit="10"/>
<line x1="135.5" y1="112" x2="135.5" y2="154" stroke="white"/>
<g clip-path="url(#clip1_1710_19890)">
<path d="M82.4356 135.019L48.3916 105.813C48.3916 105.813 44.4917 102.382 43.1501 100.799C42.0505 99.5087 40.1372 97.2948 39.9539 94.4505C39.7926 92.0167 40.9876 90.0374 42.681 87.4569L43.2821 86.6359L39.3528 86.6359L33.1143 95.1616C33.1143 95.1616 24.5153 106.971 34.3459 115.424L50.8254 129.601L50.9134 129.675C50.1363 129.807 49.6158 129.902 49.6158 129.902C45.6939 130.628 41.5887 132.167 38.2825 134.418L31.223 128.37C31.223 128.37 28.342 125.892 25.8495 123.077C24.1928 121.208 21.9129 118.473 24.0462 113.584C24.442 112.675 25.0285 111.78 25.6663 110.783L23.2838 108.65L16.3635 118.085C16.3635 118.085 7.76457 129.902 17.5951 138.362L26.2161 145.817C25.373 146.821 24.9112 147.466 24.9112 147.466L20.9013 152.965C20.9013 152.965 15.9017 160.464 17.3679 168.66C17.7711 170.94 19.3618 177.156 27.4623 184.12L47.7832 201.582L52.3429 195.285C57.2985 187.815 51.991 183.431 51.991 183.431L33.0264 167.142C33.0264 167.142 21.9276 157.598 27.6309 149.798C27.9461 149.255 28.4373 148.698 28.9944 148.141L34.0893 152.532L59.0065 173.916C59.0065 173.916 71.9966 185.154 61.0152 200.226L48.3403 217.644L16.3122 190.073C16.3122 190.073 6.8189 181.914 10.9168 172.736L8.49765 170.595L3.94525 176.841C3.94525 176.841 -0.819742 183.394 0.646409 191.598C1.0496 193.863 2.64037 200.094 10.7482 207.058L41.1122 233.178H41.8746L65.4796 200.688L70.8897 193.254C70.8897 193.254 73.4701 189.736 75.0096 185.476C77.3334 179.033 77.5973 168.191 65.6995 157.949L46.3023 141.316C61.3597 139.41 70.4572 146.477 71.8574 147.657L72.0553 147.833H72.0626L75.7207 150.978C75.7207 150.978 89.2679 162.634 79.7452 175.712L82.201 177.75L87.6111 170.324C87.6111 170.324 90.1842 166.79 91.731 162.539C94.0549 156.095 94.3188 145.253 82.4136 135.012L82.4356 135.019Z" stroke="white" stroke-width="1.3456" stroke-miterlimit="10"/>
</g>
<path d="M39.5164 10.0001L51.2969 19.9773H51.2895L41.5983 32.3516L29.0774 21.9272L38.7173 10.0001H39.5164Z" stroke="white" stroke-width="1.3456" stroke-miterlimit="10"/>
<line x1="41.4362" y1="86.2725" x2="41.4362" y2="31.0416" stroke="white" stroke-width="1.31502"/>
<path d="M42.7805 266.351L31 256.374H31.0073L40.6986 244L53.2195 254.424L43.5796 266.351H42.7805Z" stroke="white" stroke-width="1.3456" stroke-miterlimit="10"/>
<path d="M43.22 298.704L31.4395 288.727H31.4468L41.138 276.353L53.659 286.777L44.019 298.704H43.22Z" stroke="white" stroke-width="1.3456" stroke-miterlimit="10"/>
<defs>
<clipPath id="clip0_1710_19890">
<rect width="71.0097" height="112" fill="white" transform="matrix(-1 0 0 -1 167.01 112)"/>
</clipPath>
<clipPath id="clip1_1710_19890">
<rect width="93.3791" height="147.282" fill="white" transform="translate(0 86.2696)"/>
</clipPath>
</defs>
</svg>
