<svg width="33" height="32" viewBox="0 0 33 32" fill="none" xmlns="http://www.w3.org/2000/svg">
<path fill-rule="evenodd" clip-rule="evenodd" d="M16.5198 4C13.3257 4 12.9259 4.0136 11.6715 4.072C10.4195 4.1304 9.56412 4.3336 8.81618 4.6304C8.03218 4.9312 7.32109 5.4032 6.73309 6.0144C6.13508 6.61371 5.67223 7.3388 5.37677 8.1392C5.08748 8.9024 4.88756 9.776 4.83033 11.0536C4.77388 12.3328 4.75977 12.74 4.75977 16C4.75977 19.26 4.77309 19.6672 4.83033 20.9472C4.88756 22.2248 5.08669 23.0976 5.37756 23.8608C5.67234 24.6608 6.1349 25.3864 6.73388 25.9864C7.32121 26.5966 8.0318 27.0689 8.81618 27.3704C9.56412 27.6664 10.4195 27.8696 11.6715 27.928C12.9259 27.9864 13.3257 28 16.5198 28C19.7138 28 20.1136 27.9864 21.368 27.928C22.6201 27.8696 23.4754 27.6664 24.2233 27.3696C25.0073 27.0688 25.7184 26.5968 26.3064 25.9856C26.9045 25.3863 27.3673 24.6612 27.6628 23.8608C27.9528 23.0976 28.152 22.2248 28.2092 20.9472C28.2664 19.6672 28.2798 19.2592 28.2798 16C28.2798 12.7408 28.2664 12.3328 28.2092 11.0528C28.152 9.7752 27.9528 8.9024 27.662 8.1392C27.3667 7.33845 26.9039 6.61306 26.3057 6.0136C25.7183 5.40338 25.0077 4.93109 24.2233 4.6296C23.4754 4.3344 22.6193 4.1304 21.3672 4.072C20.1136 4.0144 19.7146 4 16.5198 4ZM16.5198 6.1624C19.6597 6.1624 20.0321 6.1744 21.2724 6.232C22.4186 6.2856 23.0411 6.48 23.4558 6.6456C24.0046 6.8624 24.3966 7.1232 24.8082 7.5424C25.2198 7.9624 25.4746 8.3624 25.6871 8.9224C25.8486 9.3456 26.0399 9.9808 26.0924 11.1504C26.1488 12.416 26.1606 12.796 26.1606 16C26.1606 19.204 26.1488 19.584 26.0924 20.8496C26.0399 22.0192 25.8494 22.6544 25.6871 23.0776C25.4989 23.5988 25.1985 24.0704 24.8082 24.4576C24.4288 24.856 23.9667 25.1624 23.4558 25.3544C23.0411 25.5192 22.4186 25.7144 21.2724 25.768C20.0321 25.8256 19.6605 25.8376 16.5198 25.8376C13.3791 25.8376 13.0074 25.8256 11.7672 25.768C10.6209 25.7144 9.99845 25.52 9.58372 25.3544C9.07291 25.1623 8.61078 24.8559 8.23132 24.4576C7.84102 24.0704 7.54071 23.5988 7.35245 23.0776C7.19095 22.6544 6.99965 22.0192 6.94713 20.8496C6.89068 19.584 6.87892 19.204 6.87892 16C6.87892 12.796 6.89068 12.416 6.94713 11.1504C6.99965 9.9808 7.19017 9.3456 7.35245 8.9224C7.56492 8.3624 7.8205 7.9624 8.23132 7.5424C8.61073 7.14404 9.07287 6.83758 9.58372 6.6456C9.99845 6.4808 10.6209 6.2856 11.7672 6.232C13.0074 6.1744 13.3798 6.1624 16.5198 6.1624V6.1624Z" fill="#595959"/>
<path fill-rule="evenodd" clip-rule="evenodd" d="M16.5202 20.0037C16.0049 20.0037 15.4947 19.9002 15.0186 19.6989C14.5425 19.4977 14.11 19.2028 13.7456 18.831C13.3812 18.4592 13.0922 18.0178 12.895 17.532C12.6978 17.0462 12.5963 16.5255 12.5963 15.9997C12.5963 15.4739 12.6978 14.9532 12.895 14.4675C13.0922 13.9817 13.3812 13.5403 13.7456 13.1685C14.11 12.7967 14.5425 12.5017 15.0186 12.3005C15.4947 12.0993 16.0049 11.9957 16.5202 11.9957C17.5609 11.9957 18.559 12.4176 19.2949 13.1685C20.0307 13.9194 20.4441 14.9378 20.4441 15.9997C20.4441 17.0616 20.0307 18.0801 19.2949 18.831C18.559 19.5819 17.5609 20.0037 16.5202 20.0037V20.0037ZM16.5202 9.83172C14.9171 9.83172 13.3796 10.4816 12.246 11.6383C11.1124 12.795 10.4756 14.3639 10.4756 15.9997C10.4756 17.6356 11.1124 19.2044 12.246 20.3612C13.3796 21.5179 14.9171 22.1677 16.5202 22.1677C18.1234 22.1677 19.6608 21.5179 20.7944 20.3612C21.928 19.2044 22.5649 17.6356 22.5649 15.9997C22.5649 14.3639 21.928 12.795 20.7944 11.6383C19.6608 10.4816 18.1234 9.83172 16.5202 9.83172V9.83172ZM24.3234 9.71972C24.3234 10.1064 24.1728 10.4773 23.9049 10.7507C23.6369 11.0241 23.2735 11.1777 22.8945 11.1777C22.5156 11.1777 22.1522 11.0241 21.8842 10.7507C21.6162 10.4773 21.4657 10.1064 21.4657 9.71972C21.4657 9.33303 21.6162 8.96219 21.8842 8.68876C22.1522 8.41533 22.5156 8.26172 22.8945 8.26172C23.2735 8.26172 23.6369 8.41533 23.9049 8.68876C24.1728 8.96219 24.3234 9.33303 24.3234 9.71972" fill="#595959"/>
</svg>
