<svg width="22" height="25" viewBox="0 0 22 25" fill="none" xmlns="http://www.w3.org/2000/svg">
<path d="M21.3166 6.23287V10.4444C20.5806 10.3725 19.6242 10.2053 18.5662 9.81774C17.1848 9.31142 16.1565 8.61915 15.483 8.08314V16.5953L15.4658 16.5687C15.4767 16.7374 15.483 16.9093 15.483 17.0828C15.483 21.31 12.0434 24.7511 7.81473 24.7511C3.58602 24.7511 0.146484 21.31 0.146484 17.0828C0.146484 12.8557 3.58602 9.41302 7.81473 9.41302C8.22885 9.41302 8.63517 9.44582 9.0321 9.50989V13.6605C8.65079 13.5245 8.24135 13.4511 7.81473 13.4511C5.81289 13.4511 4.18298 15.0794 4.18298 17.0828C4.18298 19.0862 5.81289 20.7146 7.81473 20.7146C9.81657 20.7146 11.4465 19.0847 11.4465 17.0828C11.4465 17.0078 11.4449 16.9328 11.4402 16.8578V0.316406H15.6486C15.6643 0.672706 15.6783 1.03215 15.694 1.38845C15.7221 2.09011 15.9721 2.76365 16.4081 3.31529C16.9191 3.96382 17.6739 4.71702 18.7334 5.31867C19.7258 5.87968 20.6571 6.12192 21.3166 6.236V6.23287Z" fill="#595959"/>
</svg>
