<svg width="32" height="32" viewBox="0 0 32 32" fill="none" xmlns="http://www.w3.org/2000/svg">
<path d="M21.0146 23.0391C14.8533 23.0391 9.84055 18.0232 9.83887 11.8601C9.84055 10.2978 11.1123 9.02734 12.6708 9.02734C12.831 9.02734 12.9895 9.04084 13.1413 9.06783C13.4753 9.12351 13.7924 9.23655 14.0842 9.40695C14.1264 9.43226 14.155 9.47276 14.1618 9.52L14.8128 13.6248C14.8212 13.6721 14.8061 13.721 14.774 13.7564C14.4148 14.1546 13.956 14.4414 13.4449 14.5848L13.1987 14.654L13.2914 14.8919C14.1314 17.0312 15.8417 18.7403 17.982 19.5839L18.2199 19.6783L18.289 19.432C18.4324 18.9208 18.7191 18.4619 19.1172 18.1025C19.1458 18.0755 19.1846 18.062 19.2234 18.062C19.2319 18.062 19.2403 18.062 19.2504 18.0637L23.354 18.715C23.4029 18.7234 23.4434 18.7504 23.4687 18.7926C23.6374 19.0845 23.7504 19.4033 23.8078 19.7374C23.8347 19.8859 23.8465 20.0428 23.8465 20.2064C23.8465 21.767 22.5765 23.0375 21.0146 23.0391Z" fill="#595959"/>
<path d="M31.9406 14.6459C31.6083 10.8903 29.888 7.40633 27.0965 4.8368C24.2883 2.25208 20.6451 0.828125 16.8349 0.828125C8.47248 0.828125 1.66852 7.63409 1.66852 15.999C1.66852 18.8064 2.44268 21.5413 3.90839 23.9236L0.639648 31.1614L11.1054 30.0462C12.9253 30.792 14.8514 31.1699 16.8332 31.1699C17.3544 31.1699 17.8891 31.1429 18.4254 31.0872C18.8977 31.0366 19.375 30.9624 19.8439 30.8679C26.8469 29.4524 31.9592 23.2352 31.9996 16.08V15.999C31.9996 15.5435 31.9794 15.0879 31.9389 14.6476L31.9406 14.6459ZM11.5085 26.8693L5.71819 27.4868L7.44701 23.6553L7.10123 23.1913C7.07593 23.1576 7.05064 23.1238 7.02197 23.085C5.52084 21.0115 4.7281 18.5618 4.7281 16.0007C4.7281 9.32294 10.1591 3.89031 16.8349 3.89031C23.089 3.89031 28.3902 8.77124 28.9013 15.0019C28.9282 15.3359 28.9434 15.6717 28.9434 16.0024C28.9434 16.0969 28.9417 16.1896 28.94 16.2892C28.8119 21.8754 24.9106 26.6196 19.4526 27.8276C19.036 27.9204 18.6093 27.9913 18.1842 28.0368C17.7423 28.0875 17.2886 28.1127 16.8383 28.1127C15.2343 28.1127 13.6758 27.8023 12.2034 27.1882C12.0398 27.1224 11.8795 27.0515 11.7294 26.979L11.5102 26.8727L11.5085 26.8693Z" fill="#595959"/>
</svg>
