<svg width="28" height="20" viewBox="0 0 28 20" fill="none" xmlns="http://www.w3.org/2000/svg">
<path d="M26.8032 5.94369C26.6427 4.32852 26.2973 2.543 25.026 1.60467C24.0413 0.877019 22.7471 0.850119 21.5389 0.851613C18.9849 0.853107 16.4294 0.856101 13.8754 0.857595C11.4188 0.860584 8.96221 0.862085 6.50564 0.865073C5.47944 0.866567 4.4819 0.782902 3.5288 1.24609C2.71041 1.64353 2.06976 2.39955 1.68422 3.24076C1.14962 4.41068 1.03783 5.73601 0.973334 7.02994C0.854375 9.38622 0.867275 11.7485 1.00917 14.1033C1.11379 15.8215 1.37894 17.7206 2.65309 18.8158C3.78248 19.7855 5.37624 19.8333 6.84101 19.8348C11.4904 19.8393 16.1413 19.8438 20.7922 19.8468C21.3884 19.8483 22.0104 19.8363 22.6181 19.7676C23.8134 19.6331 24.9529 19.276 25.7211 18.3526C26.4965 17.4218 26.6957 16.1263 26.8132 14.8996C27.0999 11.9233 27.097 8.91855 26.8032 5.94369ZM11.1866 14.5216V6.17679L18.1178 10.3485L11.1866 14.5216Z" fill="#595959"/>
</svg>
